<svg stroke="none" viewBox="0 0 1600 500" xmlns="http://www.w3.org/2000/svg">
<path stroke="none" fill="#7D3CE8" d="M580.6,343.9c-10.3-6.4-18.6-15.7-23.9-26.6c-5.7-11.5-8.6-24.6-8.6-39.4s2.9-27.9,8.6-39.3
	c5.3-10.9,13.6-20.2,23.9-26.6c10.3-6.4,22.2-9.7,34.4-9.6c9.1-0.2,18.1,1.8,26.3,5.7c7.7,3.8,14.2,9.5,19,16.5h2.8v-81.6h41.1v206
	h-41.1v-18.1h-2.8c-10.4,15-25.4,22.5-45,22.5C602.4,353.3,590.8,350.2,580.6,343.9z M653.9,306.7c7-7.8,10.5-17.4,10.5-28.9
	s-3.5-21.1-10.5-28.7c-7-7.7-16-11.5-26.9-11.5s-19.9,3.8-27.1,11.5c-7.1,7.7-10.7,17.3-10.7,28.7s3.6,21.1,10.8,28.9
	c6.9,7.6,16.7,11.9,26.9,11.7C637.9,318.3,646.9,314.5,653.9,306.7z"/>
<path stroke="none" fill="#7D3CE8" d="M739.7,180.2c-4.6-4.5-6.9-10.3-6.9-17.4s2.3-12.8,6.9-17.4c4.6-4.5,10.5-6.8,17.8-6.8c7.2,0,13.1,2.3,17.8,6.8
	c4.6,4.5,6.9,10.3,6.9,17.4c0,7-2.3,12.8-6.9,17.4c-4.6,4.5-10.6,6.8-17.8,6.8C750.2,187,744.3,184.7,739.7,180.2z M736.9,206.7H778
	v142.1h-41.1V206.7z"/>
<path stroke="none" fill="#7D3CE8" d="M831.6,404.1c-13.5-8.7-22-21-25.5-36.9l39.7-7.8c2.3,7.4,7,13.8,13.3,18.3c6.3,4.4,13.9,6.7,22.8,6.7
	c11.5,0,20.6-3.5,27.3-10.4s10.1-16.2,10.1-27.9v-15.8h-2.8c-12,13.7-27,20.5-45,20.5c-13,0-24.5-3.1-34.7-9.2
	c-10.2-6.1-18.4-15-23.8-25.7c-5.7-11-8.6-23.7-8.6-38.2c0-15,2.8-28.2,8.5-39.6c5.2-10.9,13.4-20,23.6-26.4
	c10.1-6.2,21.7-9.3,34.8-9.3c19.1,0,34.5,7.4,46.4,22.2h2.8v-18h40v140.4c0,21.8-6.9,39-20.8,51.4s-32.8,18.6-56.6,18.6
	C862.2,417.2,845.1,412.8,831.6,404.1z M910.1,306.1c7-7.4,10.6-16.8,10.5-28.3c0-11.7-3.5-21.3-10.5-28.9c-7-7.6-16-11.4-26.9-11.4
	c-10.9,0-20,3.8-27.1,11.4c-7.1,7.6-10.7,17.2-10.7,28.9c0,11.5,3.6,20.9,10.7,28.3s16.2,11.1,27.1,11.1
	C894.1,317.2,903.1,313.5,910.1,306.1L910.1,306.1z"/>
<path stroke="none" fill="#7D3CE8" d="M995.9,180.2c-4.6-4.5-6.9-10.3-6.9-17.3s2.3-12.8,6.9-17.4c4.6-4.5,10.6-6.8,17.8-6.8c7.2,0,13.1,2.3,17.8,6.8
	c4.6,4.5,7,10.3,7,17.4s-2.3,12.8-7,17.4c-4.6,4.5-10.5,6.8-17.8,6.8C1006.5,187,1000.6,184.8,995.9,180.2z M993.1,206.7h41.1v142.1
	h-41.1L993.1,206.7z"/>
<path stroke="none" fill="#7D3CE8" d="M1090.6,339.4c-8.5-9.2-12.8-21.4-12.8-36.4v-66.3h-20v-30h21.1l8.1-45h32.2l-0.3,45h32.5v30h-32.5v64.7
	c0,6.1,1.7,11,5.1,14.6c3.4,3.6,8,5.4,13.7,5.4c5-0.1,9.9-0.7,14.7-2v29.4c-4.4,1.4-9,2.5-13.6,3.2c-4.7,0.8-9.4,1.2-14.2,1.2
	C1110.5,353.3,1099.1,348.7,1090.6,339.4z"/>
<path stroke="none" fill="#7D3CE8" d="M1183.2,341.5c-9-7.3-13.5-17.3-13.5-29.8c0-26.8,22.4-43,67.2-48.6l30.3-3.6v-5.8c0-6.8-2.3-12.3-6.8-16.5
	c-4.5-4.2-10.9-6.3-19-6.2c-7.6,0-13.7,2-18.3,6c-4.6,4-6.8,9.5-6.7,16.5h-40.2c0-15.5,6-27.9,17.9-37.2
	c11.9-9.3,27.9-13.9,47.9-13.9c20.2,0,36.3,4.8,48.3,14.3s18,22.4,18,38.4v93.8h-41.1v-18.1h-2.8c-4.5,7.1-10.9,12.6-18.5,16.1
	c-7.9,3.7-16.9,5.6-27.1,5.6C1204,352.5,1192.1,348.8,1183.2,341.5z M1257.4,316.7c6.3-5.6,9.9-13.7,9.7-22.2v-10l-29.1,3.6
	c-9.6,1.1-16.7,3.5-21.2,7.1s-6.8,8-6.8,13.2c-0.2,4.9,2,9.7,6,12.6c4,3,9.5,4.6,16.5,4.6C1242.6,325.6,1250.9,322.6,1257.4,316.7z"
	/>
<path stroke="none" fill="#7D3CE8" d="M1337.4,142.9h41.1v206h-41.1V142.9z"/>
<path stroke="none" fill="#7D3CE8" d="M1409.8,142.9h41.1V262h2.8l45.5-55.2h49.7l-59.1,68.2l60.2,73.9h-50l-46.4-60.5h-2.8v60.5h-41.1L1409.8,142.9z
	"/>
<path stroke="none" fill="#7D3CE8" d="M322.3,359.9c0.2,0.6,0.4,1.2,0.6,1.8c42.8-11.7,70.9-52.5,66.6-96.7c-41.4,2.9-72.6,38.9-69.7,80.3
	C320.2,350.2,321,355.1,322.3,359.9L322.3,359.9z"/>
<path stroke="none" fill="#7D3CE8" d="M275.1,308.9c-8.5-31.3-30-57.4-58.9-72c-11.1,24.2-10.9,51.6,1.2,76.7s33.6,42.2,59.4,48.5
	C280.5,344.5,279.9,326.3,275.1,308.9z"/>
<path stroke="none" fill="#7D3CE8" d="M344.3,235c10.4-2.8,20.2-7.4,29-13.4c-29-41-85.8-50.6-126.7-21.6c-1,0.7-1.9,1.4-2.9,2.1
	C267.6,232.2,307.2,245.2,344.3,235z"/>
<path stroke="none" fill="#BDCAFF" d="M467.3,320.1c-7.9-29-32.4-50.5-62.2-54.6c4.1,50.3-27.8,96.4-76.2,110.5c19.9,36.4,65.6,49.8,102,29.9
	C461.4,389.2,476.5,353.7,467.3,320.1z"/>
<path stroke="none" fill="#BDCAFF" d="M203.5,320.4c-13.8-28.1-14.3-60.9-1.5-89.5c-59.8-20.6-125.1,11.1-145.7,71s11.1,125.1,71,145.7
	c59.7,20.6,124.7-10.9,145.6-70.5C242.4,369.4,217,348.6,203.5,320.4z"/>
<path stroke="none" fill="#BDCAFF" d="M315,168.8c28.4,4.1,53.8,19.6,70.5,42.9c38.3-36.7,39.6-97.6,2.9-135.9S290.8,36.2,252.5,73
	c-31.5,30.2-38.7,78-17.5,116.1C257.8,171.7,286.7,164.4,315,168.8z"/>
</svg>
